<mxfile host="app.diagrams.net" modified="2024-06-14T12:20:39.638Z" agent="Mozilla/5.0 (Macintosh; Intel Mac OS X 10_15_7) AppleWebKit/605.1.15 (KHTML, like Gecko) Version/18.0 Safari/605.1.15" version="24.5.4" etag="oU5Pina8NSesO_qPmvfz" type="github">
  <diagram name="Strona-1" id="wvkn3gAB-WMRPEqn_aFE">
    <mxGraphModel>
      <root>
        <mxCell id="0" />
        <mxCell id="1" parent="0" />
      </root>
    </mxGraphModel>
  </diagram>
</mxfile>
